# xmcd CD database file
# 
# Track frame offsets:
# 182
# 16545
# 35567
# 48410
# 59475
# 73390
# 87857
# 95975
# 108762
# 123420
# 142052
# 153630
# 162745
# 176040
# 191925
# 202387
# 213012
# 225967
# 237065
# 250692
# 264307
# 278680
# 297312
# 
# Disc length: 4130 seconds
#
# 
# Revision: 0
# Processed by: cddbd v1.4b41PL1 Copyright (c) Steve Scherf et al.
# Submitted via: SuperSonic v3.0
# 
DISCID=59102017
DTITLE=Various, Country - THE NASHVILLE EXPLOSION - COUNTRY MUSIC'S GREATES
DTITLE=T HITS
DYEAR=1900
DGENRE=
TTITLE0=CAN'T KEEP A GOOD MAN DOWN
TTITLE1=FIRE IN THE NIGHT
TTITLE2=DETROIT CITY
TTITLE3=LEAVIN' ON YOUR MIND
TTITLE4=LONG BLACK VEIL
TTITLE5=DREAM OF ME
TTITLE6=THINK IT OVER
TTITLE7=STILL DOIN' TIME
TTITLE8=EMOTIONS
TTITLE9=BEAUTIFUL YOU
TTITLE10=SLOWLY
TTITLE11=ARE YOU SINCERE
TTITLE12=RUBY, DON'T TAKE YOUR LOVE TO TOWN
TTITLE13=HONEY
TTITLE14=I DON'T CARE
TTITLE15=I'M TIRED
TTITLE16=GOOD WOMAN BLUES
TTITLE17=I BELIEVE IN YOU
TTITLE18=WHAT DID I PROMISE HER LAST NIGHT
TTITLE19=DIGGIN' UP BONES
TTITLE20=I'LL NEVER BE IN LOVE AGAIN
TTITLE21=LORD, I HOPE THIS DAY IS GOOD
TTITLE22=HONKY TONK MAN
EXTD=
EXTT0=
EXTT1=
EXTT2=
EXTT3=
EXTT4=
EXTT5=
EXTT6=
EXTT7=
EXTT8=
EXTT9=
EXTT10=
EXTT11=
EXTT12=
EXTT13=
EXTT14=
EXTT15=
EXTT16=
EXTT17=
EXTT18=
EXTT19=
EXTT20=
EXTT21=
EXTT22=
PLAYORDER=
